<svg xmlns="http://www.w3.org/2000/svg" viewBox="0 0 512 512">
  <path fill="#4CAF50" d="M64 480H448c35.3 0 64-28.7 64-64V160c0-35.3-28.7-64-64-64H288c-10.1 0-19.6-4.7-25.6-12.8L243.2 57.6C231.1 41.5 212.1 32 192 32H64C28.7 32 0 60.7 0 96V416c0 35.3 28.7 64 64 64z"/>
  <g transform="translate(130, 150) scale(1.5)">
    <path fill="#3DDC84" d="M44.2 48.1c-6.5 0-11.8 5.3-11.8 11.8v176.9c0 6.5 5.3 11.8 11.8 11.8h23.5v44.1H29.4v44.1h57.5v-44.1H56.4v-44.1h23.5c6.5 0 11.8-5.3 11.8-11.8V59.9c0-6.5-5.3-11.8-11.8-11.8H44.2z"/>
    <path fill="#3DDC84" d="M117.9 48.1h-12.9v232.7h12.9c6.5 0 11.8-5.3 11.8-11.8V59.9c0-6.5-5.3-11.8-11.8-11.8z"/>
    <path fill="#3DDC84" d="M176.7 48.1h-12.9v232.7h12.9c6.5 0 11.8-5.3 11.8-11.8V59.9c0-6.5-5.3-11.8-11.8-11.8z"/>
    <path fill="#3DDC84" d="M235.5 48.1h-12.9v232.7h12.9c6.5 0 11.8-5.3 11.8-11.8V59.9c0-6.5-5.3-11.8-11.8-11.8z"/>
    <path fill="#3DDC84" d="M294.3 48.1h-12.9v232.7h12.9c6.5 0 11.8-5.3 11.8-11.8V59.9c0-6.5-5.3-11.8-11.8-11.8z"/>
    <path fill="#3DDC84" d="M353.1 48.1h-12.9v232.7h12.9c6.5 0 11.8-5.3 11.8-11.8V59.9c0-6.5-5.3-11.8-11.8-11.8z"/>
    <path fill="#3DDC84" d="M411.9 48.1H399v232.7h12.9c6.5 0 11.8-5.3 11.8-11.8V59.9c0-6.5-5.3-11.8-11.8-11.8z"/>
  </g>
</svg>
