<svg xmlns="http://www.w3.org/2000/svg" viewBox="0 0 512 512">
  <path fill="#00ad00" d="M64 480H448c35.3 0 64-28.7 64-64V160c0-35.3-28.7-64-64-64H288c-10.1 0-19.6-4.7-25.6-12.8L243.2 57.6C231.1 41.5 212.1 32 192 32H64C28.7 32 0 60.7 0 96V416c0 35.3 28.7 64 64 64z"/>
  <g transform="translate(203, 290) scale(0.6)">
  <svg xmlns="http://www.w3.org/2000/svg" viewBox="0 0 576 512"><path fill="#00ff00" d="M420.6 301.9a24 24 0 1 1 24-24 24 24 0 0 1 -24 24m-265.1 0a24 24 0 1 1 24-24 24 24 0 0 1 -24 24m273.7-144.5 47.9-83a10 10 0 1 0 -17.3-10h0l-48.5 84.1a301.3 301.3 0 0 0 -246.6 0L116.2 64.5a10 10 0 1 0 -17.3 10h0l47.9 83C64.5 202.2 8.2 285.6 0 384H576c-8.2-98.5-64.5-181.8-146.9-226.6"/></svg>
  </g>
</svg>
